<svg width="35" height="32" viewBox="0 0 35 32" fill="none" xmlns="http://www.w3.org/2000/svg">
<path d="M20.9 31.09V20.95C20.9 15.4033 21.9833 10.8533 24.15 7.29999C26.4033 3.74666 30 1.58 34.94 0.799999V6.12999C31.9933 6.47666 29.9133 7.60333 28.7 9.51C27.4867 11.4167 26.88 14.45 26.88 18.61L22.98 18.09H34.81V31.09H20.9ZM0.880001 31.09V20.95C0.880001 15.4033 1.96333 10.8533 4.13 7.29999C6.38333 3.74666 9.98 1.58 14.92 0.799999V6.12999C11.9733 6.47666 9.89333 7.60333 8.68 9.51C7.46667 11.4167 6.86 14.45 6.86 18.61L2.96 18.09H14.79V31.09H0.880001Z" fill="white"/>
</svg>
