<svg width="28" height="28" viewBox="0 0 28 28" fill="none" xmlns="http://www.w3.org/2000/svg">
<g clip-path="url(#clip0_1_544)">
<path fill-rule="evenodd" clip-rule="evenodd" d="M10.6294 1.68047C10.2887 1.97073 10.1179 2.11633 9.93592 2.2386C9.51872 2.5186 9.05019 2.71273 8.55739 2.8098C8.34272 2.8518 8.11872 2.87047 7.67259 2.90593C6.55072 2.99553 5.98979 3.04033 5.52126 3.20553C4.43859 3.5882 3.58739 4.4394 3.20472 5.52207C3.03952 5.98967 2.99472 6.5506 2.90512 7.6734C2.86966 8.11953 2.85192 8.34353 2.80899 8.5582C2.71192 9.051 2.51779 9.51953 2.23779 9.93673C2.11552 10.1187 1.97086 10.2895 1.67966 10.6302C0.949791 11.487 0.584858 11.9154 0.370191 12.3634C-0.124475 13.3994 -0.124475 14.6034 0.370191 15.6394C0.583925 16.0874 0.948858 16.5158 1.67966 17.3726C1.96992 17.7133 2.11552 17.8841 2.23779 18.0661C2.51779 18.4833 2.71192 18.9518 2.80899 19.4455C2.85099 19.6602 2.86966 19.8842 2.90512 20.3303C2.99472 21.4522 3.03952 22.0131 3.20472 22.4817C3.58739 23.5643 4.43859 24.4155 5.52126 24.7982C5.98886 24.9634 6.54979 25.0082 7.67259 25.0978C8.11872 25.1333 8.34272 25.151 8.55739 25.1939C9.05019 25.291 9.51872 25.4851 9.93592 25.7651C10.1179 25.8874 10.2887 26.0321 10.6294 26.3233C11.4862 27.0531 11.9146 27.4181 12.3626 27.6327C13.3986 28.1274 14.6026 28.1274 15.6386 27.6327C16.0866 27.419 16.515 27.0541 17.3718 26.3233C17.7125 26.033 17.8833 25.8874 18.0653 25.7651C18.4825 25.4851 18.951 25.291 19.4447 25.1939C19.6594 25.1519 19.8834 25.1333 20.3295 25.0978C21.4514 25.0082 22.0123 24.9634 22.4809 24.7982C23.5635 24.4155 24.4147 23.5643 24.7974 22.4817C24.9626 22.0141 25.0074 21.4531 25.097 20.3303C25.1325 19.8842 25.1502 19.6602 25.1931 19.4455C25.2902 18.9527 25.4843 18.4842 25.7643 18.0661C25.8866 17.8841 26.0313 17.7133 26.3225 17.3726C27.0523 16.5158 27.4173 16.0874 27.6319 15.6394C28.1266 14.6034 28.1266 13.3994 27.6319 12.3634C27.4182 11.9154 27.0533 11.487 26.3225 10.6302C26.0322 10.2895 25.8866 10.1187 25.7643 9.93673C25.4843 9.51953 25.2902 9.051 25.1931 8.5582C25.1511 8.34353 25.1325 8.11953 25.097 7.6734C25.0074 6.55153 24.9626 5.9906 24.7974 5.52207C24.4147 4.4394 23.5635 3.5882 22.4809 3.20553C22.0133 3.04033 21.4523 2.99553 20.3295 2.90593C19.8834 2.87047 19.6594 2.85273 19.4447 2.8098C18.9519 2.71273 18.4834 2.5186 18.0653 2.2386C17.8833 2.11633 17.7125 1.97167 17.3718 1.68047C16.515 0.9506 16.0866 0.585667 15.6386 0.371C14.6026 -0.123667 13.3986 -0.123667 12.3626 0.371C11.9146 0.584733 11.4862 0.949667 10.6294 1.68047ZM20.1223 11.0091C20.5675 10.5639 20.5675 9.84247 20.1223 9.3982C19.6771 8.953 18.9557 8.953 18.5105 9.3982L11.7205 16.1882L9.48792 13.9557C9.04272 13.5105 8.32126 13.5105 7.87699 13.9557C7.43179 14.4009 7.43179 15.1223 7.87699 15.5666L10.915 18.6046C11.3602 19.0498 12.0817 19.0498 12.5269 18.6046L20.1233 11.0082L20.1223 11.0091Z" fill="#FCA311"/>
</g>
<defs>
<clipPath id="clip0_1_544">
<rect width="28" height="28" fill="white"/>
</clipPath>
</defs>
</svg>
