<svg width="142" height="26" viewBox="0 0 142 26" fill="none" xmlns="http://www.w3.org/2000/svg">
<path d="M12.0866 2.04906C12.439 1.25857 13.561 1.25857 13.9134 2.04906L16.3565 7.5301C16.5019 7.85613 16.81 8.07998 17.165 8.11744L23.1327 8.74731C23.9934 8.83815 24.3401 9.90525 23.6972 10.4846L19.2394 14.502C18.9742 14.7409 18.8566 15.1031 18.9306 15.4523L20.1757 21.3226C20.3553 22.1693 19.4476 22.8288 18.6979 22.3964L13.4996 19.3982C13.1904 19.2198 12.8096 19.2198 12.5004 19.3982L7.30213 22.3964C6.55243 22.8288 5.6447 22.1693 5.82427 21.3226L7.06937 15.4523C7.14344 15.1031 7.02575 14.7409 6.76059 14.502L2.30279 10.4846C1.65988 9.90525 2.0066 8.83815 2.86728 8.74731L8.83505 8.11744C9.19003 8.07998 9.49813 7.85613 9.64346 7.5301L12.0866 2.04906Z" fill="#FCA311"/>
<path d="M41.0866 2.04906C41.439 1.25857 42.561 1.25857 42.9134 2.04906L45.3565 7.5301C45.5019 7.85613 45.81 8.07998 46.165 8.11744L52.1327 8.74731C52.9934 8.83815 53.3401 9.90525 52.6972 10.4846L48.2394 14.502C47.9742 14.7409 47.8566 15.1031 47.9306 15.4523L49.1757 21.3226C49.3553 22.1693 48.4476 22.8288 47.6979 22.3964L42.4996 19.3982C42.1904 19.2198 41.8096 19.2198 41.5004 19.3982L36.3021 22.3964C35.5524 22.8288 34.6447 22.1693 34.8243 21.3226L36.0694 15.4523C36.1434 15.1031 36.0258 14.7409 35.7606 14.502L31.3028 10.4846C30.6599 9.90525 31.0066 8.83815 31.8673 8.74731L37.835 8.11744C38.19 8.07998 38.4981 7.85613 38.6435 7.5301L41.0866 2.04906Z" fill="#FCA311"/>
<path d="M70.0866 2.04906C70.439 1.25857 71.561 1.25857 71.9134 2.04906L74.3565 7.5301C74.5019 7.85613 74.81 8.07998 75.165 8.11744L81.1327 8.74731C81.9934 8.83815 82.3401 9.90525 81.6972 10.4846L77.2394 14.502C76.9742 14.7409 76.8566 15.1031 76.9306 15.4523L78.1757 21.3226C78.3553 22.1693 77.4476 22.8288 76.6979 22.3964L71.4996 19.3982C71.1904 19.2198 70.8096 19.2198 70.5004 19.3982L65.3021 22.3964C64.5524 22.8288 63.6447 22.1693 63.8243 21.3226L65.0694 15.4523C65.1434 15.1031 65.0258 14.7409 64.7606 14.502L60.3028 10.4846C59.6599 9.90525 60.0066 8.83815 60.8673 8.74731L66.835 8.11744C67.19 8.07998 67.4981 7.85613 67.6435 7.5301L70.0866 2.04906Z" fill="#FCA311"/>
<path d="M99.0866 2.04906C99.439 1.25857 100.561 1.25857 100.913 2.04906L103.357 7.5301C103.502 7.85613 103.81 8.07998 104.165 8.11744L110.133 8.74731C110.993 8.83815 111.34 9.90525 110.697 10.4846L106.239 14.502C105.974 14.7409 105.857 15.1031 105.931 15.4523L107.176 21.3226C107.355 22.1693 106.448 22.8288 105.698 22.3964L100.5 19.3982C100.19 19.2198 99.8096 19.2198 99.5004 19.3982L94.3021 22.3964C93.5524 22.8288 92.6447 22.1693 92.8243 21.3226L94.0694 15.4523C94.1434 15.1031 94.0258 14.7409 93.7606 14.502L89.3028 10.4846C88.6599 9.90525 89.0066 8.83815 89.8673 8.74731L95.835 8.11744C96.19 8.07998 96.4981 7.85613 96.6435 7.5301L99.0866 2.04906Z" fill="#FCA311"/>
<path d="M128.087 2.04906C128.439 1.25857 129.561 1.25857 129.913 2.04906L132.357 7.5301C132.502 7.85613 132.81 8.07998 133.165 8.11744L139.133 8.74731C139.993 8.83815 140.34 9.90525 139.697 10.4846L135.239 14.502C134.974 14.7409 134.857 15.1031 134.931 15.4523L136.176 21.3226C136.355 22.1693 135.448 22.8288 134.698 22.3964L129.5 19.3982C129.19 19.2198 128.81 19.2198 128.5 19.3982L123.302 22.3964C122.552 22.8288 121.645 22.1693 121.824 21.3226L123.069 15.4523C123.143 15.1031 123.026 14.7409 122.761 14.502L118.303 10.4846C117.66 9.90525 118.007 8.83815 118.867 8.74731L124.835 8.11744C125.19 8.07998 125.498 7.85613 125.643 7.5301L128.087 2.04906Z" fill="#FCA311"/>
</svg>
